<svg xmlns="http://www.w3.org/2000/svg" xmlns:xlink="http://www.w3.org/1999/xlink" width="1137" zoomAndPan="magnify" viewBox="0 0 852.75 184.499994" height="246" preserveAspectRatio="xMidYMid meet" version="1.0"><defs><g/></defs><g fill="#000000" fill-opacity="1"><g transform="translate(42.523223, 125.266589)"><g><path d="M 31.285156 2.109375 C 47.433594 2.109375 57.25 -5.78125 57.25 -18.441406 C 57.25 -29.359375 49.636719 -34.773438 39.449219 -37.25 L 26.421875 -40.460938 C 21.375 -41.746094 18.808594 -44.222656 18.808594 -47.800781 C 18.808594 -52.203125 22.660156 -55.691406 29.632812 -55.691406 C 36.789062 -55.691406 42.113281 -51.929688 42.9375 -45.324219 L 56.148438 -45.324219 C 55.324219 -58.167969 45.324219 -66.792969 29.542969 -66.792969 C 12.753906 -66.792969 5.136719 -56.789062 5.136719 -46.332031 C 5.136719 -37.15625 11.007812 -30.734375 21.195312 -28.167969 L 33.210938 -25.136719 C 39.449219 -23.578125 43.210938 -21.835938 43.210938 -17.15625 C 43.210938 -12.019531 38.625 -8.992188 31.195312 -8.992188 C 22.570312 -8.992188 17.25 -13.027344 16.882812 -20.277344 L 3.578125 -20.277344 C 3.945312 -6.148438 14.679688 2.109375 31.285156 2.109375 Z M 31.285156 2.109375 "/></g></g></g><g fill="#000000" fill-opacity="1"><g transform="translate(93.256652, 125.266589)"><g><path d="M 1.835938 -65.324219 L 1.835938 -53.214844 L 21.46875 -53.214844 L 21.46875 0 L 35.046875 0 L 35.046875 -53.214844 L 54.589844 -53.214844 L 54.589844 -65.324219 Z M 1.835938 -65.324219 "/></g></g></g><g fill="#000000" fill-opacity="1"><g transform="translate(140.962592, 125.266589)"><g><path d="M 33.855469 -45.046875 L 30.09375 -35.964844 L 26.515625 -45.046875 L 16.605469 -65.324219 L 1.652344 -65.324219 L 23.304688 -25.320312 L 23.304688 0 L 36.882812 0 L 36.882812 -25.320312 L 58.535156 -65.324219 L 43.945312 -65.324219 Z M 33.855469 -45.046875 "/></g></g></g><g fill="#000000" fill-opacity="1"><g transform="translate(192.430025, 125.266589)"><g><path d="M 19.542969 -65.324219 L 5.964844 -65.324219 L 5.964844 0 L 51.378906 0 L 51.378906 -12.109375 L 19.542969 -12.109375 Z M 19.542969 -65.324219 "/></g></g></g><g fill="#000000" fill-opacity="1"><g transform="translate(236.466223, 125.266589)"><g><path d="M 19.542969 -27.890625 L 50.09375 -27.890625 L 50.09375 -40 L 19.542969 -40 L 19.542969 -53.214844 L 53.488281 -53.214844 L 53.488281 -65.324219 L 5.964844 -65.324219 L 5.964844 0 L 54.40625 0 L 54.40625 -12.109375 L 19.542969 -12.109375 Z M 19.542969 -27.890625 "/></g></g></g><g fill="#000000" fill-opacity="1"><g transform="translate(285.824789, 125.266589)"><g/></g></g><g fill="#000000" fill-opacity="1"><g transform="translate(300.044309, 125.266589)"><g/></g></g><g fill="#000000" fill-opacity="1"><g transform="translate(314.263829, 125.266589)"><g/></g></g><g fill="#000000" fill-opacity="1"><g transform="translate(328.483349, 125.266589)"><g/></g></g><g fill="#000000" fill-opacity="1"><g transform="translate(342.70287, 125.266589)"><g/></g></g><g fill="#000000" fill-opacity="1"><g transform="translate(356.928964, 125.266589)"><g><path d="M 27.25 -65.324219 L 5.964844 -65.324219 L 5.964844 0 L 29.082031 0 C 51.285156 0 61.011719 -13.578125 61.011719 -33.121094 C 61.011719 -52.664062 51.746094 -65.324219 27.25 -65.324219 Z M 19.542969 -11.46875 L 19.542969 -54.3125 L 25.964844 -54.3125 C 42.660156 -54.3125 47.433594 -46.789062 47.433594 -32.660156 C 47.433594 -18.441406 42.203125 -11.46875 27.800781 -11.46875 Z M 19.542969 -11.46875 "/></g></g></g><g fill="#000000" fill-opacity="1"><g transform="translate(412.157879, 125.266589)"><g><path d="M 19.542969 0 L 19.542969 -65.324219 L 5.964844 -65.324219 L 5.964844 0 Z M 19.542969 0 "/></g></g></g><g fill="#000000" fill-opacity="1"><g transform="translate(428.946216, 125.266589)"><g><path d="M 31.285156 2.109375 C 47.433594 2.109375 57.25 -5.78125 57.25 -18.441406 C 57.25 -29.359375 49.636719 -34.773438 39.449219 -37.25 L 26.421875 -40.460938 C 21.375 -41.746094 18.808594 -44.222656 18.808594 -47.800781 C 18.808594 -52.203125 22.660156 -55.691406 29.632812 -55.691406 C 36.789062 -55.691406 42.113281 -51.929688 42.9375 -45.324219 L 56.148438 -45.324219 C 55.324219 -58.167969 45.324219 -66.792969 29.542969 -66.792969 C 12.753906 -66.792969 5.136719 -56.789062 5.136719 -46.332031 C 5.136719 -37.15625 11.007812 -30.734375 21.195312 -28.167969 L 33.210938 -25.136719 C 39.449219 -23.578125 43.210938 -21.835938 43.210938 -17.15625 C 43.210938 -12.019531 38.625 -8.992188 31.195312 -8.992188 C 22.570312 -8.992188 17.25 -13.027344 16.882812 -20.277344 L 3.578125 -20.277344 C 3.945312 -6.148438 14.679688 2.109375 31.285156 2.109375 Z M 31.285156 2.109375 "/></g></g></g><g fill="#000000" fill-opacity="1"><g transform="translate(481.055844, 125.266589)"><g><path d="M 33.578125 2.109375 C 49.453125 2.109375 60.09375 -6.421875 61.195312 -21.375 L 48.351562 -21.375 C 47.339844 -15.136719 43.121094 -9.632812 34.40625 -9.632812 C 23.027344 -9.632812 16.789062 -18.898438 16.789062 -32.660156 C 16.789062 -45.964844 23.027344 -55.046875 34.40625 -55.046875 C 42.480469 -55.046875 47.25 -50.550781 48.351562 -43.671875 L 61.285156 -43.671875 C 60.09375 -57.984375 49.726562 -66.792969 33.761719 -66.792969 C 16.332031 -66.792969 3.210938 -53.761719 3.210938 -32.660156 C 3.210938 -11.46875 16.148438 2.109375 33.578125 2.109375 Z M 33.578125 2.109375 "/></g></g></g><g fill="#000000" fill-opacity="1"><g transform="translate(535.917791, 125.266589)"><g><path d="M 34.039062 2.109375 C 51.46875 2.109375 65.230469 -11.558594 65.230469 -32.753906 C 65.230469 -53.855469 51.46875 -66.882812 34.039062 -66.882812 C 16.605469 -66.882812 3.210938 -53.855469 3.210938 -32.753906 C 3.210938 -11.46875 16.605469 2.109375 34.039062 2.109375 Z M 34.039062 -9.632812 C 23.304688 -9.632812 16.789062 -18.898438 16.789062 -32.753906 C 16.789062 -46.058594 23.304688 -55.140625 34.039062 -55.140625 C 44.773438 -55.140625 51.652344 -46.148438 51.652344 -32.753906 C 51.652344 -18.898438 44.773438 -9.632812 34.039062 -9.632812 Z M 34.039062 -9.632812 "/></g></g></g><g fill="#000000" fill-opacity="1"><g transform="translate(594.724685, 125.266589)"><g><path d="M 36.605469 -36.882812 L 31.011719 -15.320312 L 25.414062 -36.882812 L 16.699219 -65.324219 L 2.292969 -65.324219 L 24.40625 0 L 37.25 0 L 59.453125 -65.324219 L 45.046875 -65.324219 Z M 36.605469 -36.882812 "/></g></g></g><g fill="#000000" fill-opacity="1"><g transform="translate(647.751738, 125.266589)"><g><path d="M 19.542969 -27.890625 L 50.09375 -27.890625 L 50.09375 -40 L 19.542969 -40 L 19.542969 -53.214844 L 53.488281 -53.214844 L 53.488281 -65.324219 L 5.964844 -65.324219 L 5.964844 0 L 54.40625 0 L 54.40625 -12.109375 L 19.542969 -12.109375 Z M 19.542969 -27.890625 "/></g></g></g><g fill="#000000" fill-opacity="1"><g transform="translate(697.109071, 125.266589)"><g><path d="M 44.589844 -31.378906 C 52.9375 -33.578125 57.066406 -38.992188 57.066406 -47.339844 C 57.066406 -56.609375 52.019531 -65.324219 36.421875 -65.324219 L 5.964844 -65.324219 L 5.964844 0 L 19.542969 0 L 19.542969 -25.320312 L 31.5625 -25.320312 C 38.625 -25.320312 40.917969 -22.386719 41.46875 -16.789062 L 43.027344 0 L 56.972656 0 L 54.3125 -20.734375 C 53.761719 -25.046875 52.203125 -29.816406 44.589844 -31.378906 Z M 19.542969 -53.945312 L 34.40625 -53.945312 C 41.101562 -53.945312 43.761719 -50.277344 43.761719 -45.507812 C 43.761719 -40.460938 40.734375 -36.332031 32.570312 -36.332031 L 19.542969 -36.332031 Z M 19.542969 -53.945312 "/></g></g></g><g fill="#000000" fill-opacity="1"><g transform="translate(746.833269, 125.266589)"><g><path d="M 33.855469 -45.046875 L 30.09375 -35.964844 L 26.515625 -45.046875 L 16.605469 -65.324219 L 1.652344 -65.324219 L 23.304688 -25.320312 L 23.304688 0 L 36.882812 0 L 36.882812 -25.320312 L 58.535156 -65.324219 L 43.945312 -65.324219 Z M 33.855469 -45.046875 "/></g></g></g><g fill="#000000" fill-opacity="1"><g transform="translate(783.621265, 125.266589)"><g><path d="M 20.644531 0 L 20.644531 -13.761719 L 5.503906 -13.761719 L 5.503906 0 Z M 20.644531 0 "/></g></g></g><g fill="#000000" fill-opacity="1"><g transform="translate(42.523223, 125.266589)"><g><path d="M 31.285156 2.109375 C 47.433594 2.109375 57.25 -5.78125 57.25 -18.441406 C 57.25 -29.359375 49.636719 -34.773438 39.449219 -37.25 L 26.421875 -40.460938 C 21.375 -41.746094 18.808594 -44.222656 18.808594 -47.800781 C 18.808594 -52.203125 22.660156 -55.691406 29.632812 -55.691406 C 36.789062 -55.691406 42.113281 -51.929688 42.9375 -45.324219 L 56.148438 -45.324219 C 55.324219 -58.167969 45.324219 -66.792969 29.542969 -66.792969 C 12.753906 -66.792969 5.136719 -56.789062 5.136719 -46.332031 C 5.136719 -37.15625 11.007812 -30.734375 21.195312 -28.167969 L 33.210938 -25.136719 C 39.449219 -23.578125 43.210938 -21.835938 43.210938 -17.15625 C 43.210938 -12.019531 38.625 -8.992188 31.195312 -8.992188 C 22.570312 -8.992188 17.25 -13.027344 16.882812 -20.277344 L 3.578125 -20.277344 C 3.945312 -6.148438 14.679688 2.109375 31.285156 2.109375 Z M 31.285156 2.109375 "/></g></g></g><g fill="#000000" fill-opacity="1"><g transform="translate(93.256652, 125.266589)"><g><path d="M 1.835938 -65.324219 L 1.835938 -53.214844 L 21.46875 -53.214844 L 21.46875 0 L 35.046875 0 L 35.046875 -53.214844 L 54.589844 -53.214844 L 54.589844 -65.324219 Z M 1.835938 -65.324219 "/></g></g></g><g fill="#000000" fill-opacity="1"><g transform="translate(140.962592, 125.266589)"><g><path d="M 33.855469 -45.046875 L 30.09375 -35.964844 L 26.515625 -45.046875 L 16.605469 -65.324219 L 1.652344 -65.324219 L 23.304688 -25.320312 L 23.304688 0 L 36.882812 0 L 36.882812 -25.320312 L 58.535156 -65.324219 L 43.945312 -65.324219 Z M 33.855469 -45.046875 "/></g></g></g><g fill="#000000" fill-opacity="1"><g transform="translate(192.430025, 125.266589)"><g><path d="M 19.542969 -65.324219 L 5.964844 -65.324219 L 5.964844 0 L 51.378906 0 L 51.378906 -12.109375 L 19.542969 -12.109375 Z M 19.542969 -65.324219 "/></g></g></g><g fill="#000000" fill-opacity="1"><g transform="translate(236.466223, 125.266589)"><g><path d="M 19.542969 -27.890625 L 50.09375 -27.890625 L 50.09375 -40 L 19.542969 -40 L 19.542969 -53.214844 L 53.488281 -53.214844 L 53.488281 -65.324219 L 5.964844 -65.324219 L 5.964844 0 L 54.40625 0 L 54.40625 -12.109375 L 19.542969 -12.109375 Z M 19.542969 -27.890625 "/></g></g></g><g fill="#000000" fill-opacity="1"><g transform="translate(285.824789, 125.266589)"><g/></g></g><g fill="#000000" fill-opacity="1"><g transform="translate(300.044309, 125.266589)"><g/></g></g><g fill="#000000" fill-opacity="1"><g transform="translate(314.263829, 125.266589)"><g/></g></g><g fill="#000000" fill-opacity="1"><g transform="translate(328.483349, 125.266589)"><g/></g></g><g fill="#000000" fill-opacity="1"><g transform="translate(342.70287, 125.266589)"><g/></g></g><g fill="#000000" fill-opacity="1"><g transform="translate(356.928964, 125.266589)"><g><path d="M 27.25 -65.324219 L 5.964844 -65.324219 L 5.964844 0 L 29.082031 0 C 51.285156 0 61.011719 -13.578125 61.011719 -33.121094 C 61.011719 -52.664062 51.746094 -65.324219 27.25 -65.324219 Z M 19.542969 -11.46875 L 19.542969 -54.3125 L 25.964844 -54.3125 C 42.660156 -54.3125 47.433594 -46.789062 47.433594 -32.660156 C 47.433594 -18.441406 42.203125 -11.46875 27.800781 -11.46875 Z M 19.542969 -11.46875 "/></g></g></g><g fill="#000000" fill-opacity="1"><g transform="translate(412.157879, 125.266589)"><g><path d="M 19.542969 0 L 19.542969 -65.324219 L 5.964844 -65.324219 L 5.964844 0 Z M 19.542969 0 "/></g></g></g><g fill="#000000" fill-opacity="1"><g transform="translate(428.946216, 125.266589)"><g><path d="M 31.285156 2.109375 C 47.433594 2.109375 57.25 -5.78125 57.25 -18.441406 C 57.25 -29.359375 49.636719 -34.773438 39.449219 -37.25 L 26.421875 -40.460938 C 21.375 -41.746094 18.808594 -44.222656 18.808594 -47.800781 C 18.808594 -52.203125 22.660156 -55.691406 29.632812 -55.691406 C 36.789062 -55.691406 42.113281 -51.929688 42.9375 -45.324219 L 56.148438 -45.324219 C 55.324219 -58.167969 45.324219 -66.792969 29.542969 -66.792969 C 12.753906 -66.792969 5.136719 -56.789062 5.136719 -46.332031 C 5.136719 -37.15625 11.007812 -30.734375 21.195312 -28.167969 L 33.210938 -25.136719 C 39.449219 -23.578125 43.210938 -21.835938 43.210938 -17.15625 C 43.210938 -12.019531 38.625 -8.992188 31.195312 -8.992188 C 22.570312 -8.992188 17.25 -13.027344 16.882812 -20.277344 L 3.578125 -20.277344 C 3.945312 -6.148438 14.679688 2.109375 31.285156 2.109375 Z M 31.285156 2.109375 "/></g></g></g><g fill="#000000" fill-opacity="1"><g transform="translate(481.055844, 125.266589)"><g><path d="M 33.578125 2.109375 C 49.453125 2.109375 60.09375 -6.421875 61.195312 -21.375 L 48.351562 -21.375 C 47.339844 -15.136719 43.121094 -9.632812 34.40625 -9.632812 C 23.027344 -9.632812 16.789062 -18.898438 16.789062 -32.660156 C 16.789062 -45.964844 23.027344 -55.046875 34.40625 -55.046875 C 42.480469 -55.046875 47.25 -50.550781 48.351562 -43.671875 L 61.285156 -43.671875 C 60.09375 -57.984375 49.726562 -66.792969 33.761719 -66.792969 C 16.332031 -66.792969 3.210938 -53.761719 3.210938 -32.660156 C 3.210938 -11.46875 16.148438 2.109375 33.578125 2.109375 Z M 33.578125 2.109375 "/></g></g></g><g fill="#000000" fill-opacity="1"><g transform="translate(535.917791, 125.266589)"><g><path d="M 34.039062 2.109375 C 51.46875 2.109375 65.230469 -11.558594 65.230469 -32.753906 C 65.230469 -53.855469 51.46875 -66.882812 34.039062 -66.882812 C 16.605469 -66.882812 3.210938 -53.855469 3.210938 -32.753906 C 3.210938 -11.46875 16.605469 2.109375 34.039062 2.109375 Z M 34.039062 -9.632812 C 23.304688 -9.632812 16.789062 -18.898438 16.789062 -32.753906 C 16.789062 -46.058594 23.304688 -55.140625 34.039062 -55.140625 C 44.773438 -55.140625 51.652344 -46.148438 51.652344 -32.753906 C 51.652344 -18.898438 44.773438 -9.632812 34.039062 -9.632812 Z M 34.039062 -9.632812 "/></g></g></g><g fill="#000000" fill-opacity="1"><g transform="translate(594.724685, 125.266589)"><g><path d="M 36.605469 -36.882812 L 31.011719 -15.320312 L 25.414062 -36.882812 L 16.699219 -65.324219 L 2.292969 -65.324219 L 24.40625 0 L 37.25 0 L 59.453125 -65.324219 L 45.046875 -65.324219 Z M 36.605469 -36.882812 "/></g></g></g><g fill="#000000" fill-opacity="1"><g transform="translate(647.751738, 125.266589)"><g><path d="M 19.542969 -27.890625 L 50.09375 -27.890625 L 50.09375 -40 L 19.542969 -40 L 19.542969 -53.214844 L 53.488281 -53.214844 L 53.488281 -65.324219 L 5.964844 -65.324219 L 5.964844 0 L 54.40625 0 L 54.40625 -12.109375 L 19.542969 -12.109375 Z M 19.542969 -27.890625 "/></g></g></g><g fill="#000000" fill-opacity="1"><g transform="translate(697.109071, 125.266589)"><g><path d="M 44.589844 -31.378906 C 52.9375 -33.578125 57.066406 -38.992188 57.066406 -47.339844 C 57.066406 -56.609375 52.019531 -65.324219 36.421875 -65.324219 L 5.964844 -65.324219 L 5.964844 0 L 19.542969 0 L 19.542969 -25.320312 L 31.5625 -25.320312 C 38.625 -25.320312 40.917969 -22.386719 41.46875 -16.789062 L 43.027344 0 L 56.972656 0 L 54.3125 -20.734375 C 53.761719 -25.046875 52.203125 -29.816406 44.589844 -31.378906 Z M 19.542969 -53.945312 L 34.40625 -53.945312 C 41.101562 -53.945312 43.761719 -50.277344 43.761719 -45.507812 C 43.761719 -40.460938 40.734375 -36.332031 32.570312 -36.332031 L 19.542969 -36.332031 Z M 19.542969 -53.945312 "/></g></g></g><g fill="#000000" fill-opacity="1"><g transform="translate(746.833269, 125.266589)"><g><path d="M 33.855469 -45.046875 L 30.09375 -35.964844 L 26.515625 -45.046875 L 16.605469 -65.324219 L 1.652344 -65.324219 L 23.304688 -25.320312 L 23.304688 0 L 36.882812 0 L 36.882812 -25.320312 L 58.535156 -65.324219 L 43.945312 -65.324219 Z M 33.855469 -45.046875 "/></g></g></g><g fill="#000000" fill-opacity="1"><g transform="translate(783.621265, 125.266589)"><g><path d="M 20.644531 0 L 20.644531 -13.761719 L 5.503906 -13.761719 L 5.503906 0 Z M 20.644531 0 "/></g></g></g></svg>