<svg xmlns="http://www.w3.org/2000/svg" xmlns:xlink="http://www.w3.org/1999/xlink" width="1080" zoomAndPan="magnify" viewBox="0 0 810 817.92" height="1080" preserveAspectRatio="xMidYMid meet" version="1.0"><defs><clipPath id="1db3b63511"><path d="M 129.792969 124.851562 L 680.238281 124.851562 L 680.238281 685.046875 L 129.792969 685.046875 Z M 129.792969 124.851562 " clip-rule="nonzero"/></clipPath></defs><path fill="#000000" d="M 409.003906 684.050781 C 332.246094 684.050781 262.464844 653.152344 211.625 602.3125 C 161.78125 551.476562 130.875 481.703125 130.875 404.949219 C 130.875 328.199219 161.78125 258.421875 212.621094 207.585938 C 263.460938 156.75 332.246094 125.847656 409.003906 125.847656 C 417.976562 125.847656 426.949219 125.847656 435.921875 126.847656 C 444.890625 127.84375 453.863281 128.839844 461.839844 130.832031 C 466.824219 131.828125 470.8125 136.8125 469.8125 142.792969 C 468.816406 146.78125 465.828125 149.773438 461.839844 150.769531 C 416.980469 160.738281 377.105469 185.65625 349.191406 220.542969 C 322.277344 254.433594 305.328125 298.292969 305.328125 345.144531 C 305.328125 399.964844 327.261719 449.804688 363.148438 485.691406 C 399.035156 521.574219 448.878906 543.503906 503.707031 543.503906 C 534.609375 543.503906 564.515625 536.527344 590.433594 523.566406 C 617.351562 510.609375 641.277344 490.671875 660.214844 467.746094 C 663.207031 463.761719 670.183594 462.765625 674.171875 465.753906 C 677.164062 468.746094 679.15625 472.730469 677.164062 476.71875 C 661.214844 536.527344 625.324219 589.355469 577.476562 626.238281 C 532.617188 662.121094 473.800781 684.050781 409.003906 684.050781 Z M 226.578125 588.359375 C 273.429688 635.207031 338.226562 664.113281 410 664.113281 C 469.8125 664.113281 524.640625 644.179688 567.507812 610.289062 C 600.402344 584.371094 627.320312 551.476562 645.261719 512.601562 C 631.308594 523.566406 617.351562 533.535156 601.402344 541.511719 C 572.492188 555.464844 539.59375 563.4375 505.703125 563.4375 C 444.890625 563.4375 391.0625 538.519531 351.1875 499.644531 C 311.3125 459.773438 287.386719 404.949219 287.386719 345.144531 C 287.386719 293.308594 305.328125 245.464844 335.234375 207.585938 C 356.171875 181.667969 383.085938 159.738281 414.984375 145.785156 L 410 145.785156 C 338.226562 145.785156 273.429688 174.691406 226.578125 221.539062 C 179.722656 268.390625 149.816406 333.179688 149.816406 404.949219 C 149.816406 476.71875 179.722656 541.511719 226.578125 588.359375 Z M 226.578125 588.359375 " fill-opacity="1" fill-rule="nonzero"/><g clip-path="url(#1db3b63511)"><path stroke-linecap="butt" transform="matrix(9.968731, 0, 0, 9.967886, 86.017657, 85.977679)" fill="none" stroke-linejoin="miter" d="M 32.399937 59.999995 C 24.700079 59.999995 17.700065 56.900196 12.600134 51.799833 C 7.600124 46.699861 4.499805 39.700038 4.499805 31.999919 C 4.499805 24.300192 7.600124 17.299977 12.700056 12.200005 C 17.799987 7.100033 24.700079 3.999843 32.399937 3.999843 C 33.300017 3.999843 34.200097 3.999843 35.100177 4.100165 C 35.999865 4.200095 36.899945 4.300026 37.700104 4.499886 C 38.200105 4.599816 38.600184 5.09986 38.49987 5.699833 C 38.399948 6.099947 38.100183 6.400129 37.700104 6.50006 C 33.200095 7.500146 29.200087 9.999971 26.399925 13.499883 C 23.700077 16.899864 21.999838 21.299932 21.999838 26.000182 C 21.999838 31.499875 24.200078 36.499917 27.800006 40.100151 C 31.399935 43.699993 36.399944 45.900026 41.899955 45.900026 C 44.999883 45.900026 47.999888 45.200123 50.599815 43.899853 C 53.300055 42.599976 55.700138 40.599802 57.599828 38.299838 C 57.899986 37.900117 58.59983 37.800186 58.999909 38.099977 C 59.300067 38.40016 59.49991 38.799881 59.300067 39.199994 C 57.700142 45.200123 54.099822 50.499955 49.300048 54.200119 C 44.800039 57.799961 38.899949 59.999995 32.399937 59.999995 Z M 14.100137 50.400025 C 18.799989 55.099883 25.300001 57.999821 32.499859 57.999821 C 38.49987 57.999821 43.999881 56.00004 48.300046 52.600059 C 51.599817 49.999912 54.300057 46.699861 56.099825 42.799836 C 54.700136 43.899853 53.300055 44.89994 51.700131 45.700166 C 48.800047 47.099974 45.499884 47.899808 42.10019 47.899808 C 35.999865 47.899808 30.600168 45.399983 26.600161 41.499959 C 22.600153 37.500004 20.20007 31.999919 20.20007 26.000182 C 20.20007 20.799888 21.999838 16.000099 24.999844 12.200005 C 27.100162 9.599858 29.80001 7.399824 32.99986 6.000016 L 32.499859 6.000016 C 25.300001 6.000016 18.799989 8.899954 14.100137 13.599813 C 9.399893 18.300064 6.399887 24.799843 6.399887 31.999919 C 6.399887 39.199994 9.399893 45.700166 14.100137 50.400025 Z M 14.100137 50.400025 " stroke="#000000" stroke-width="0.227" stroke-opacity="1" stroke-miterlimit="10"/></g></svg>