<svg xmlns="http://www.w3.org/2000/svg" xmlns:xlink="http://www.w3.org/1999/xlink" width="1080" zoomAndPan="magnify" viewBox="0 0 810 809.999993" height="1080" preserveAspectRatio="xMidYMid meet" version="1.0"><defs><clipPath id="65feeea6a1"><path d="M 65.460938 65.460938 L 744.210938 65.460938 L 744.210938 744.210938 L 65.460938 744.210938 Z M 65.460938 65.460938 " clip-rule="nonzero"/></clipPath></defs><path fill="#ffffff" d="M 541.539062 193.542969 C 537.914062 199.582031 530.664062 200.792969 525.832031 197.167969 C 519.789062 193.542969 518.582031 186.292969 522.207031 180.25 L 559.664062 116.210938 C 563.289062 110.167969 570.539062 107.75 576.582031 111.375 C 582.621094 115 583.832031 122.25 580.207031 128.292969 Z M 629.746094 290.207031 C 623.707031 293.832031 616.457031 291.417969 612.832031 285.375 C 609.207031 279.332031 611.621094 272.082031 617.664062 268.457031 L 682.914062 232.207031 C 688.953125 228.582031 696.203125 231 699.828125 237.042969 C 703.453125 243.082031 701.039062 250.332031 694.996094 253.957031 Z M 519.789062 629.746094 C 516.164062 623.707031 518.582031 616.457031 524.621094 612.832031 C 530.664062 609.207031 537.914062 611.621094 541.539062 617.664062 L 577.789062 682.914062 C 581.414062 688.953125 578.996094 696.203125 572.957031 699.828125 C 566.914062 703.453125 559.664062 701.039062 556.039062 694.996094 Z M 392.914062 656.332031 C 392.914062 650.289062 398.957031 644.246094 405 644.246094 C 411.039062 644.246094 417.082031 650.289062 417.082031 656.332031 L 415.875 731.246094 C 415.875 738.496094 409.832031 743.328125 403.789062 743.328125 C 396.539062 743.328125 391.707031 737.289062 391.707031 731.246094 Z M 268.457031 616.457031 C 272.082031 610.414062 279.332031 609.207031 285.375 612.832031 C 291.417969 616.457031 292.625 623.707031 289 629.746094 L 251.542969 693.789062 C 247.917969 699.828125 240.667969 701.039062 234.625 697.414062 C 228.582031 693.789062 227.375 686.539062 229.792969 680.496094 Z M 180.25 519.789062 C 186.292969 516.164062 193.542969 518.582031 197.167969 524.621094 C 200.792969 530.664062 198.375 537.914062 192.332031 540.332031 L 127.085938 576.582031 C 121.042969 580.207031 113.792969 577.789062 110.167969 571.746094 C 106.542969 565.707031 108.960938 558.457031 115 554.832031 Z M 153.667969 392.914062 C 159.710938 392.914062 165.75 398.957031 165.75 405 C 165.75 412.25 159.710938 417.082031 153.667969 417.082031 L 78.75 415.875 C 71.5 415.875 66.667969 409.832031 66.667969 403.789062 C 66.667969 397.75 72.710938 391.707031 78.75 391.707031 Z M 417.082031 153.667969 C 417.082031 160.917969 411.039062 165.75 405 165.75 C 398.957031 165.75 392.914062 159.710938 392.914062 153.667969 L 394.125 78.75 C 394.125 72.710938 400.164062 66.667969 406.207031 66.667969 C 412.25 66.667969 418.289062 72.710938 418.289062 78.75 Z M 616.457031 541.539062 C 610.414062 537.914062 609.207031 530.664062 612.832031 524.621094 C 616.457031 518.582031 623.707031 517.375 629.746094 520.996094 L 693.789062 558.457031 C 699.828125 562.082031 701.039062 569.332031 697.414062 575.371094 C 693.789062 581.414062 686.539062 583.832031 680.496094 580.207031 Z M 656.332031 417.082031 C 649.082031 417.082031 644.246094 411.039062 644.246094 405 C 644.246094 398.957031 650.289062 392.914062 656.332031 392.914062 L 731.246094 394.125 C 737.289062 394.125 743.328125 400.164062 743.328125 406.207031 C 743.328125 413.457031 737.289062 418.289062 731.246094 418.289062 Z M 405 206.832031 C 459.375 206.832031 508.914062 228.582031 545.164062 264.832031 C 581.414062 299.875 603.164062 350.625 603.164062 405 C 603.164062 459.375 581.414062 508.914062 545.164062 545.164062 C 510.125 580.207031 459.375 603.164062 405 603.164062 C 350.625 603.164062 301.082031 581.414062 264.832031 545.164062 C 229.792969 508.914062 206.832031 459.375 206.832031 405 C 206.832031 350.625 228.582031 301.082031 264.832031 264.832031 C 301.082031 228.582031 350.625 206.832031 405 206.832031 Z M 528.246094 281.75 C 496.832031 250.332031 453.332031 231 406.207031 231 C 359.082031 231 314.375 250.332031 282.957031 281.75 C 251.542969 313.167969 232.207031 356.664062 232.207031 403.789062 C 232.207031 450.914062 251.542969 495.625 282.957031 527.039062 C 314.375 558.457031 357.875 577.789062 406.207031 577.789062 C 454.539062 577.789062 498.039062 558.457031 528.246094 527.039062 C 559.664062 495.625 578.996094 452.125 578.996094 403.789062 C 578.996094 355.457031 559.664062 313.167969 528.246094 281.75 Z M 290.207031 180.25 C 293.832031 186.292969 291.417969 193.542969 285.375 197.167969 C 279.332031 200.792969 272.082031 198.375 269.667969 192.332031 L 233.417969 127.085938 C 229.792969 121.042969 232.207031 113.792969 238.25 110.167969 C 244.292969 106.542969 251.542969 108.960938 255.167969 115 Z M 193.542969 268.457031 C 199.582031 272.082031 200.792969 279.332031 197.167969 285.375 C 193.542969 291.417969 186.292969 292.625 180.25 289 L 116.210938 251.542969 C 110.167969 247.917969 108.960938 240.667969 112.585938 234.625 C 116.210938 228.582031 123.460938 227.375 129.5 231 Z M 193.542969 268.457031 " fill-opacity="1" fill-rule="nonzero"/><g clip-path="url(#65feeea6a1)"><path stroke-linecap="butt" transform="matrix(12.083239, 0, 0, 12.083239, 18.335283, 18.3353)" fill="none" stroke-linejoin="miter" d="M 43.299961 14.500058 C 42.999959 14.999847 42.399954 15.100063 42.000059 14.80006 C 41.499947 14.500058 41.400054 13.900053 41.700056 13.399942 L 44.799973 8.100116 C 45.099975 7.600004 45.69998 7.399895 46.200091 7.699897 C 46.69988 7.9999 46.800096 8.599904 46.500094 9.100016 Z M 50.59991 22.499905 C 50.100122 22.799907 49.500117 22.600121 49.200115 22.10001 C 48.900112 21.599898 49.099898 20.999893 49.60001 20.699891 L 55.000052 17.699868 C 55.499841 17.399865 56.099845 17.599975 56.399848 18.100086 C 56.69985 18.599875 56.500064 19.199879 55.999952 19.499882 Z M 41.499947 50.599909 C 41.199945 50.10012 41.400054 49.500116 41.899842 49.200113 C 42.399954 48.900111 42.999959 49.099897 43.299961 49.600009 L 46.299984 55.000051 C 46.599987 55.499839 46.399877 56.099844 45.900089 56.399846 C 45.399977 56.699849 44.799973 56.500062 44.49997 55.999951 Z M 30.999865 52.800141 C 30.999865 52.30003 31.499977 51.799918 32.000088 51.799918 C 32.499877 51.799918 32.999988 52.30003 32.999988 52.800141 L 32.900095 58.999974 C 32.900095 59.599979 32.399984 59.999874 31.899872 59.999874 C 31.299867 59.999874 30.899972 59.500086 30.899972 58.999974 Z M 20.699892 49.500116 C 20.999895 49.000004 21.599899 48.900111 22.100011 49.200113 C 22.600123 49.500116 22.700016 50.10012 22.400013 50.599909 L 19.300097 55.900058 C 19.000095 56.399846 18.40009 56.500062 17.899978 56.20006 C 17.399867 55.900058 17.299974 55.300053 17.500083 54.799941 Z M 13.399943 41.499945 C 13.900055 41.199943 14.500059 41.400052 14.800062 41.899841 C 15.100064 42.399952 14.899955 42.999957 14.399843 43.200067 L 9.000124 46.20009 C 8.500013 46.500092 7.900008 46.299983 7.600006 45.799871 C 7.300003 45.300083 7.500113 44.700078 7.999901 44.400076 Z M 11.200034 30.999864 C 11.700145 30.999864 12.199934 31.499975 12.199934 32.000087 C 12.199934 32.600092 11.700145 32.999987 11.200034 32.999987 L 4.999878 32.900094 C 4.399873 32.900094 3.999978 32.399982 3.999978 31.899871 C 3.999978 31.400082 4.500089 30.899971 4.999878 30.899971 Z M 32.999988 11.200032 C 32.999988 11.800037 32.499877 12.199932 32.000088 12.199932 C 31.499977 12.199932 30.999865 11.700144 30.999865 11.200032 L 31.100081 4.999876 C 31.100081 4.500088 31.59987 3.999976 32.099981 3.999976 C 32.600093 3.999976 33.099881 4.500088 33.099881 4.999876 Z M 49.500117 43.29996 C 49.000005 42.999957 48.900112 42.399952 49.200115 41.899841 C 49.500117 41.400052 50.100122 41.300159 50.59991 41.599838 L 55.900059 44.700078 C 56.399848 45.000081 56.500064 45.600085 56.200062 46.099874 C 55.900059 46.599985 55.300054 46.800095 54.799943 46.500092 Z M 52.800143 32.999987 C 52.200138 32.999987 51.799919 32.499875 51.799919 32.000087 C 51.799919 31.499975 52.300031 30.999864 52.800143 30.999864 L 58.999976 31.10008 C 59.500087 31.10008 59.999876 31.599868 59.999876 32.09998 C 59.999876 32.699985 59.500087 33.09988 58.999976 33.09988 Z M 32.000088 15.599851 C 36.500123 15.599851 40.59994 17.399865 43.599963 20.399889 C 46.599987 23.300019 48.400001 27.500052 48.400001 32.000087 C 48.400001 36.500122 46.599987 40.599938 43.599963 43.599962 C 40.700156 46.500092 36.500123 48.399999 32.000088 48.399999 C 27.500053 48.399999 23.399913 46.599985 20.39989 43.599962 C 17.500083 40.599938 15.599853 36.500122 15.599853 32.000087 C 15.599853 27.500052 17.399867 23.399912 20.39989 20.399889 C 23.399913 17.399865 27.500053 15.599851 32.000088 15.599851 Z M 42.199845 21.800007 C 39.60004 19.199879 36.000012 17.599975 32.099981 17.599975 C 28.199951 17.599975 24.50003 19.199879 21.899902 21.800007 C 19.300097 24.400135 17.699869 27.99984 17.699869 31.899871 C 17.699869 35.799901 19.300097 39.500145 21.899902 42.09995 C 24.50003 44.700078 28.100058 46.299983 32.099981 46.299983 C 36.099905 46.299983 39.699933 44.700078 42.199845 42.09995 C 44.799973 39.500145 46.399877 35.900117 46.399877 31.899871 C 46.399877 27.899947 44.799973 24.400135 42.199845 21.800007 Z M 22.499906 13.399942 C 22.799909 13.900053 22.600123 14.500058 22.100011 14.80006 C 21.599899 15.100063 20.999895 14.899953 20.800109 14.399842 L 17.800085 9.000123 C 17.500083 8.500011 17.699869 7.900007 18.199981 7.600004 C 18.700092 7.300002 19.300097 7.500111 19.600099 7.9999 Z M 14.500059 20.699891 C 14.999848 20.999893 15.100064 21.599898 14.800062 22.10001 C 14.500059 22.600121 13.900055 22.700014 13.399943 22.400012 L 8.100117 19.300096 C 7.600006 19.000093 7.500113 18.400089 7.800115 17.899977 C 8.100117 17.399865 8.700122 17.299972 9.19991 17.599975 Z M 14.500059 20.699891 " stroke="#000000" stroke-width="0.227" stroke-opacity="1" stroke-miterlimit="10"/></g></svg>