<svg xmlns="http://www.w3.org/2000/svg" xmlns:xlink="http://www.w3.org/1999/xlink" width="150" zoomAndPan="magnify" viewBox="0 0 112.5 37.5" height="50" preserveAspectRatio="xMidYMid meet" version="1.0"><defs><g/></defs><g fill="#000000" fill-opacity="1"><g transform="translate(10.972759, 28.587582)"><g><path d="M 12.4375 -17.484375 C 12.601562 -17.484375 12.6875 -17.398438 12.6875 -17.234375 L 12.6875 -17.046875 C 12.6875 -16.878906 12.601562 -16.796875 12.4375 -16.796875 L 7.34375 -16.796875 C 7.28125 -16.796875 7.25 -16.757812 7.25 -16.6875 L 7.25 -0.25 C 7.25 -0.0820312 7.164062 0 7 0 L 6.75 0 C 6.582031 0 6.5 -0.0820312 6.5 -0.25 L 6.5 -16.6875 C 6.5 -16.757812 6.460938 -16.796875 6.390625 -16.796875 L 1.546875 -16.796875 C 1.378906 -16.796875 1.296875 -16.878906 1.296875 -17.046875 L 1.296875 -17.234375 C 1.296875 -17.398438 1.378906 -17.484375 1.546875 -17.484375 Z M 12.4375 -17.484375 "/></g></g></g><g fill="#000000" fill-opacity="1"><g transform="translate(22.513293, 28.587582)"><g><path d="M 13.140625 -17.234375 C 13.140625 -17.398438 13.222656 -17.484375 13.390625 -17.484375 L 13.640625 -17.484375 C 13.804688 -17.484375 13.890625 -17.398438 13.890625 -17.234375 L 13.890625 -0.25 C 13.890625 -0.0820312 13.804688 0 13.640625 0 L 13.390625 0 C 13.222656 0 13.140625 -0.0820312 13.140625 -0.25 L 13.140625 -8.3125 C 13.140625 -8.382812 13.109375 -8.421875 13.046875 -8.421875 L 3.671875 -8.421875 C 3.609375 -8.421875 3.578125 -8.382812 3.578125 -8.3125 L 3.578125 -0.25 C 3.578125 -0.0820312 3.492188 0 3.328125 0 L 3.078125 0 C 2.910156 0 2.828125 -0.0820312 2.828125 -0.25 L 2.828125 -17.234375 C 2.828125 -17.398438 2.910156 -17.484375 3.078125 -17.484375 L 3.328125 -17.484375 C 3.492188 -17.484375 3.578125 -17.398438 3.578125 -17.234375 L 3.578125 -9.21875 C 3.578125 -9.15625 3.609375 -9.125 3.671875 -9.125 L 13.046875 -9.125 C 13.109375 -9.125 13.140625 -9.15625 13.140625 -9.21875 Z M 13.140625 -17.234375 "/></g></g></g><g fill="#000000" fill-opacity="1"><g transform="translate(36.77658, 28.587582)"><g><path d="M 13.6875 -17.046875 C 13.6875 -16.878906 13.601562 -16.796875 13.4375 -16.796875 L 3.671875 -16.796875 C 3.609375 -16.796875 3.578125 -16.757812 3.578125 -16.6875 L 3.578125 -9.21875 C 3.578125 -9.15625 3.609375 -9.125 3.671875 -9.125 L 10.71875 -9.125 C 10.882812 -9.125 10.96875 -9.039062 10.96875 -8.875 L 10.96875 -8.671875 C 10.96875 -8.503906 10.882812 -8.421875 10.71875 -8.421875 L 3.671875 -8.421875 C 3.609375 -8.421875 3.578125 -8.382812 3.578125 -8.3125 L 3.578125 -0.796875 C 3.578125 -0.734375 3.609375 -0.703125 3.671875 -0.703125 L 13.4375 -0.703125 C 13.601562 -0.703125 13.6875 -0.617188 13.6875 -0.453125 L 13.6875 -0.25 C 13.6875 -0.0820312 13.601562 0 13.4375 0 L 3.078125 0 C 2.910156 0 2.828125 -0.0820312 2.828125 -0.25 L 2.828125 -17.234375 C 2.828125 -17.398438 2.910156 -17.484375 3.078125 -17.484375 L 13.4375 -17.484375 C 13.601562 -17.484375 13.6875 -17.398438 13.6875 -17.234375 Z M 13.6875 -17.046875 "/></g></g></g><g fill="#000000" fill-opacity="1"><g transform="translate(49.771842, 28.587582)"><g/></g></g><g fill="#000000" fill-opacity="1"><g transform="translate(52.31976, 28.587582)"><g/></g></g><g fill="#000000" fill-opacity="1"><g transform="translate(54.871811, 28.587582)"><g><path d="M 13.390625 0 C 13.242188 0 13.144531 -0.0546875 13.09375 -0.171875 L 9.09375 -8.375 C 9.070312 -8.414062 9.039062 -8.4375 9 -8.4375 L 3.671875 -8.4375 C 3.609375 -8.4375 3.578125 -8.40625 3.578125 -8.34375 L 3.578125 -0.25 C 3.578125 -0.0820312 3.492188 0 3.328125 0 L 3.078125 0 C 2.910156 0 2.828125 -0.0820312 2.828125 -0.25 L 2.828125 -17.234375 C 2.828125 -17.398438 2.910156 -17.484375 3.078125 -17.484375 L 9.125 -17.484375 C 10.46875 -17.484375 11.550781 -17.0625 12.375 -16.21875 C 13.195312 -15.382812 13.609375 -14.289062 13.609375 -12.9375 C 13.609375 -11.726562 13.273438 -10.726562 12.609375 -9.9375 C 11.953125 -9.144531 11.054688 -8.671875 9.921875 -8.515625 C 9.835938 -8.484375 9.8125 -8.441406 9.84375 -8.390625 L 13.796875 -0.296875 C 13.804688 -0.265625 13.8125 -0.222656 13.8125 -0.171875 C 13.8125 -0.0546875 13.742188 0 13.609375 0 Z M 3.671875 -16.796875 C 3.609375 -16.796875 3.578125 -16.757812 3.578125 -16.6875 L 3.578125 -9.21875 C 3.578125 -9.15625 3.609375 -9.125 3.671875 -9.125 L 9.125 -9.125 C 10.238281 -9.125 11.140625 -9.476562 11.828125 -10.1875 C 12.515625 -10.894531 12.859375 -11.8125 12.859375 -12.9375 C 12.859375 -14.09375 12.515625 -15.023438 11.828125 -15.734375 C 11.140625 -16.441406 10.238281 -16.796875 9.125 -16.796875 Z M 3.671875 -16.796875 "/></g></g></g><g fill="#000000" fill-opacity="1"><g transform="translate(68.93527, 28.587582)"><g><path d="M 12.765625 0 C 12.617188 0 12.519531 -0.0664062 12.46875 -0.203125 L 11.3125 -3.71875 C 11.300781 -3.769531 11.269531 -3.796875 11.21875 -3.796875 L 3.015625 -3.796875 C 2.972656 -3.796875 2.941406 -3.769531 2.921875 -3.71875 L 1.78125 -0.203125 C 1.726562 -0.0664062 1.625 0 1.46875 0 L 1.21875 0 C 1.039062 0 0.976562 -0.09375 1.03125 -0.28125 L 6.625 -17.296875 C 6.675781 -17.421875 6.773438 -17.484375 6.921875 -17.484375 L 7.265625 -17.484375 C 7.421875 -17.484375 7.519531 -17.421875 7.5625 -17.296875 L 13.1875 -0.28125 L 13.21875 -0.171875 C 13.21875 -0.0546875 13.140625 0 12.984375 0 Z M 3.171875 -4.59375 C 3.148438 -4.5625 3.148438 -4.53125 3.171875 -4.5 C 3.203125 -4.476562 3.234375 -4.46875 3.265625 -4.46875 L 10.9375 -4.46875 C 10.976562 -4.46875 11.003906 -4.476562 11.015625 -4.5 C 11.035156 -4.53125 11.035156 -4.5625 11.015625 -4.59375 L 7.171875 -16.3125 C 7.148438 -16.34375 7.125 -16.359375 7.09375 -16.359375 C 7.0625 -16.359375 7.035156 -16.34375 7.015625 -16.3125 Z M 3.171875 -4.59375 "/></g></g></g><g fill="#000000" fill-opacity="1"><g transform="translate(79.076945, 28.587582)"><g><path d="M 6.015625 0 C 5.890625 0 5.800781 -0.0664062 5.75 -0.203125 L 0.78125 -17.21875 L 0.75 -17.296875 C 0.75 -17.421875 0.832031 -17.484375 1 -17.484375 L 1.21875 -17.484375 C 1.351562 -17.484375 1.445312 -17.421875 1.5 -17.296875 L 6.125 -1.59375 C 6.132812 -1.5625 6.148438 -1.546875 6.171875 -1.546875 C 6.203125 -1.546875 6.226562 -1.5625 6.25 -1.59375 L 10.46875 -17.265625 C 10.5 -17.410156 10.59375 -17.484375 10.75 -17.484375 L 11.046875 -17.484375 C 11.191406 -17.484375 11.28125 -17.421875 11.3125 -17.296875 L 15.671875 -1.59375 C 15.679688 -1.5625 15.695312 -1.546875 15.71875 -1.546875 C 15.75 -1.546875 15.773438 -1.5625 15.796875 -1.59375 L 20.46875 -17.296875 C 20.507812 -17.421875 20.597656 -17.484375 20.734375 -17.484375 L 20.96875 -17.484375 C 21.050781 -17.484375 21.113281 -17.457031 21.15625 -17.40625 C 21.195312 -17.363281 21.207031 -17.300781 21.1875 -17.21875 L 16.109375 -0.203125 C 16.066406 -0.0664062 15.976562 0 15.84375 0 L 15.546875 0 C 15.390625 0 15.296875 -0.0703125 15.265625 -0.21875 L 11 -16.0625 C 10.976562 -16.09375 10.953125 -16.109375 10.921875 -16.109375 C 10.898438 -16.109375 10.882812 -16.09375 10.875 -16.0625 L 6.59375 -0.21875 C 6.5625 -0.0703125 6.472656 0 6.328125 0 Z M 6.015625 0 "/></g></g></g></svg>